# xmcd
#
# Track frame offsets: 
#        150
#        16315
#        35730
#        56152
#        76953
#        97656
#        114870
#        133687
#        149613
#        165724
#
# Disc length: 2475 seconds
#
# Revision: 2
# Processed by: cddbd v1.5.2PL0 Copyright (c) Steve Scherf et al.
# Submitted via: ExactAudioCopy v1.3
#
DISCID=7f09a90a
DTITLE=蔡依林 - 城堡
DYEAR=2004
DGENRE=pop
TTITLE0=愛情三十六計 (36 Tricks Of Love)
TTITLE1=就是愛 (It's Love)
TTITLE2=檸檬草的味道 (The Smell Of Lemon Grass)
TTITLE3=海盜 (Pirates)
TTITLE4=始作俑者 (The Starter)
TTITLE5=Love Love Love
TTITLE6=消失的城堡 (Disappearing Castle)
TTITLE7=乖貓 (Nice Cat)
TTITLE8=第一優先 (Priority)
TTITLE9=倒帶 (Rewind)
EXTD=
EXTT0=
EXTT1=
EXTT2=
EXTT3=
EXTT4=
EXTT5=
EXTT6=
EXTT7=
EXTT8=
EXTT9=
PLAYORDER=
